<?xml version="1.0" standalone="no"?>
<!DOCTYPE svg PUBLIC "-//W3C//DTD SVG 20010904//EN"
 "http://www.w3.org/TR/2001/REC-SVG-20010904/DTD/svg10.dtd">
<svg version="1.0" xmlns="http://www.w3.org/2000/svg"
 width="340.000000pt" height="340.000000pt" viewBox="0 0 340.000000 340.000000"
 preserveAspectRatio="xMidYMid meet">
<metadata>
Created by potrace 1.14, written by Peter Selinger 2001-2017
</metadata>
<g transform="translate(0.000000,340.000000) scale(0.100000,-0.100000)"
fill="#000000" stroke="none">
<path d="M1951 2214 c-181 -48 -320 -194 -366 -384 -14 -54 -14 -210 -1 -257
3 -13 8 -33 11 -45 11 -51 70 -152 120 -206 85 -93 222 -152 350 -152 225 0
408 124 485 328 26 67 34 123 32 220 -5 223 -136 411 -338 483 -76 27 -217 33
-293 13z m306 -98 c118 -42 217 -143 260 -269 75 -213 -21 -450 -220 -547
-106 -51 -210 -57 -320 -19 -366 128 -393 652 -41 819 101 49 213 54 321 16z"/>
<path d="M437 2038 c-77 -10 -157 -50 -225 -113 -179 -166 -185 -420 -12 -511
29 -15 59 -18 164 -19 l130 0 2 93 3 92 -80 0 c-93 0 -130 15 -149 59 -16 41
-6 89 29 138 41 56 88 76 188 77 45 1 84 4 86 6 6 7 87 176 87 181 0 7 -161 5
-223 -3z"/>
<path d="M719 2042 c-6 -3 -5 -12 4 -25 8 -12 13 -29 12 -37 -2 -12 -69 -272
-138 -536 l-14 -52 92 0 91 -1 19 72 c10 40 19 74 20 77 0 3 18 73 40 157 l39
151 46 4 c74 5 115 -4 118 -27 5 -38 -20 -57 -81 -59 -31 -1 -59 -5 -62 -8 -3
-3 -14 -41 -25 -84 l-18 -78 30 -36 c17 -19 65 -73 107 -120 42 -46 94 -105
117 -130 76 -84 97 -105 92 -90 -3 8 -22 69 -43 135 -20 66 -45 147 -56 180
-13 39 -16 61 -9 63 29 10 72 58 95 107 23 50 53 164 49 193 -1 6 -2 23 -3 36
-2 38 -47 84 -94 97 -38 10 -402 19 -428 11z"/>
<path d="M1357 2038 c-9 -5 -7 -12 4 -24 15 -15 12 -33 -43 -247 -33 -128 -61
-241 -63 -252 -3 -11 -11 -42 -19 -68 -8 -26 -10 -49 -6 -52 12 -7 169 -4 174
4 10 15 166 634 162 639 -8 8 -197 8 -209 0z"/>
<path d="M2628 2013 c12 -18 22 -54 26 -98 7 -68 9 -82 20 -175 3 -25 8 -67
11 -95 3 -27 8 -63 10 -80 2 -16 7 -57 10 -90 4 -33 8 -70 10 -83 8 -49 19
-167 16 -177 -7 -28 40 41 173 250 80 127 150 237 156 245 6 8 25 38 43 67 17
29 62 100 99 158 l67 105 -92 0 -92 0 -112 -182 c-62 -100 -113 -177 -114
-172 0 5 -2 20 -4 34 -2 14 -9 79 -16 145 -6 66 -13 127 -15 135 -1 8 -3 21
-3 28 -1 9 -29 12 -107 12 l-105 0 19 -27z"/>
</g>
</svg>
