<svg xmlns="http://www.w3.org/2000/svg" width="264" height="79" viewBox="0 0 264 79" fill="none">
<path d="M36.6729 74.8054C36.3338 75.3263 35.8594 75.7169 35.2499 75.9773C34.6449 76.2328 33.9391 76.3606 33.1325 76.3606C32.3167 76.3606 31.5925 76.1567 30.9601 75.7488C30.3276 75.3361 29.8372 74.7514 29.4889 73.9947C29.1452 73.238 28.9687 72.361 28.9595 71.3635V70.4275C28.9595 68.8109 29.3101 67.558 30.0114 66.6687C30.7172 65.7793 31.7071 65.3346 32.9812 65.3346C34.0262 65.3346 34.8672 65.6221 35.5042 66.197C36.1413 66.7669 36.5309 67.5777 36.6729 68.6291H35.353C35.1055 67.2091 34.3172 66.4991 32.9881 66.4991C32.1036 66.4991 31.4321 66.8333 30.9738 67.5015C30.5201 68.1648 30.2909 69.1279 30.2863 70.3906V71.2677C30.2863 72.4715 30.543 73.4297 31.0563 74.1421C31.5696 74.8497 32.264 75.2034 33.1393 75.2034C33.6343 75.2034 34.0674 75.1445 34.4387 75.0265C34.8099 74.9086 35.117 74.7096 35.3599 74.4296V72.0195H33.0431V70.8697H36.6729V74.8054Z" fill="#ff4e50"/>
<path d="M44.407 73.4125H40.2134L39.2716 76.2132H37.9104L41.7327 65.482H42.8876L46.7168 76.2132H45.3625L44.407 73.4125ZM40.6121 72.248H44.0151L42.3102 67.2288L40.6121 72.248Z" fill="#ff4e50"/>
<path d="M49.7692 65.482L53.0416 74.2379L56.3139 65.482H58.0257V76.2132H56.7058V72.0342L56.8295 67.5236L53.5434 76.2132H52.5328L49.2536 67.5457L49.3842 72.0342V76.2132H48.0643V65.482H49.7692Z" fill="#ff4e50"/>
<path d="M66.0141 71.253H61.6762V75.056H66.7153V76.2132H60.3562V65.482H66.6466V66.6465H61.6762V70.0958H66.0141V71.253Z" fill="#ff4e50"/>
<path d="M77.3711 71.4741H73.1706V76.2132H71.8507V65.482H78.0517V66.6465H73.1706V70.3169H77.3711V71.4741Z" fill="#ff4e50"/>
<path d="M87.3325 71.194C87.3325 72.2455 87.1675 73.1643 86.8375 73.9505C86.5075 74.7317 86.04 75.3287 85.4351 75.7415C84.8301 76.1542 84.1243 76.3606 83.3177 76.3606C82.5294 76.3606 81.8304 76.1542 81.2209 75.7415C80.6113 75.3238 80.137 74.7317 79.7978 73.9652C79.4633 73.1938 79.2914 72.302 79.2822 71.2898V70.5159C79.2822 69.4841 79.4495 68.5726 79.7841 67.7816C80.1187 66.9905 80.5907 66.3861 81.2003 65.9685C81.8144 65.5459 82.5156 65.3346 83.3039 65.3346C84.106 65.3346 84.8118 65.5435 85.4213 65.9611C86.0355 66.3738 86.5075 66.9758 86.8375 67.7668C87.1675 68.553 87.3325 69.4694 87.3325 70.5159V71.194ZM86.0194 70.5012C86.0194 69.2286 85.7811 68.2533 85.3045 67.5752C84.8278 66.8922 84.161 66.5507 83.3039 66.5507C82.4698 66.5507 81.8121 66.8922 81.3309 67.5752C80.8542 68.2533 80.609 69.1967 80.5953 70.4054V71.194C80.5953 72.4273 80.8359 73.3977 81.3171 74.1053C81.8029 74.8079 82.4698 75.1592 83.3177 75.1592C84.1701 75.1592 84.8301 74.8275 85.2976 74.1642C85.7651 73.496 86.0057 72.5403 86.0194 71.2972V70.5012Z" fill="#ff4e50"/>
<path d="M92.9835 71.8721H90.6323V76.2132H89.3055V65.482H92.6191C93.7466 65.482 94.6128 65.7572 95.2178 66.3075C95.8273 66.8578 96.1321 67.6587 96.1321 68.7102C96.1321 69.3785 95.9625 69.9607 95.6234 70.457C95.2888 70.9532 94.8213 71.3242 94.2209 71.5699L96.5721 76.1247V76.2132H95.1559L92.9835 71.8721ZM90.6323 70.7149H92.6604C93.3158 70.7149 93.8359 70.5331 94.2209 70.1695C94.6105 69.8059 94.8053 69.3195 94.8053 68.7102C94.8053 68.0469 94.6197 67.5383 94.2484 67.1846C93.8818 66.8308 93.3501 66.6515 92.6535 66.6465H90.6323V70.7149Z" fill="#ff4e50"/>
<path d="M107.001 71.4741H102.801V76.2132H101.481V65.482H107.682V66.6465H102.801V70.3169H107.001V71.4741Z" fill="#ff4e50"/>
<path d="M116.309 65.482V72.7786C116.305 73.7908 116.007 74.6187 115.416 75.2624C114.829 75.9061 114.031 76.2672 113.023 76.3458L112.673 76.3606C111.577 76.3606 110.704 76.0436 110.053 75.4098C109.403 74.776 109.073 73.9038 109.063 72.7934V65.482H110.37V72.7491C110.37 73.5255 110.569 74.1298 110.968 74.5622C111.366 74.9897 111.935 75.2034 112.673 75.2034C113.42 75.2034 113.99 74.9897 114.384 74.5622C114.783 74.1347 114.982 73.5328 114.982 72.7565V65.482H116.309Z" fill="#ff4e50"/>
<path d="M126.085 76.2132H124.758L119.719 67.9437V76.2132H118.392V65.482H119.719L124.772 73.7883V65.482H126.085V76.2132Z" fill="#ff4e50"/>
<path d="M128.189 78.3505L127.467 77.8199C127.898 77.1762 128.122 76.5129 128.141 75.8299V74.5991H129.385V75.6678C129.385 76.164 129.27 76.6603 129.041 77.1566C128.817 77.6528 128.532 78.0508 128.189 78.3505Z" fill="#ff4e50"/>
<path d="M140.343 71.253H136.005V75.056H141.044V76.2132H134.685V65.482H140.976V66.6465H136.005V70.0958H140.343V71.253Z" fill="#ff4e50"/>
<path d="M148.215 73.4125H144.021L143.079 76.2132H141.718L145.54 65.482H146.695L150.525 76.2132H149.17L148.215 73.4125ZM144.42 72.248H147.823L146.118 67.2288L144.42 72.248Z" fill="#ff4e50"/>
<path d="M155.543 71.8721H153.192V76.2132H151.865V65.482H155.179C156.306 65.482 157.172 65.7572 157.777 66.3075C158.387 66.8578 158.692 67.6587 158.692 68.7102C158.692 69.3785 158.522 69.9607 158.183 70.457C157.848 70.9532 157.381 71.3242 156.781 71.5699L159.132 76.1247V76.2132H157.716L155.543 71.8721ZM153.192 70.7149H155.22C155.875 70.7149 156.396 70.5331 156.781 70.1695C157.17 69.8059 157.365 69.3195 157.365 68.7102C157.365 68.0469 157.179 67.5383 156.808 67.1846C156.441 66.8308 155.91 66.6515 155.213 66.6465H153.192V70.7149Z" fill="#ff4e50"/>
<path d="M168.241 76.2132H166.914L161.875 67.9437V76.2132H160.548V65.482H161.875L166.928 73.7883V65.482H168.241V76.2132Z" fill="#ff4e50"/>
<path d="M179.598 71.4741H175.397V76.2132H174.077V65.482H180.278V66.6465H175.397V70.3169H179.598V71.4741Z" fill="#ff4e50"/>
<path d="M189.559 71.194C189.559 72.2455 189.394 73.1643 189.064 73.9505C188.734 74.7317 188.267 75.3287 187.662 75.7415C187.057 76.1542 186.351 76.3606 185.544 76.3606C184.756 76.3606 184.057 76.1542 183.447 75.7415C182.838 75.3238 182.364 74.7317 182.024 73.9652C181.69 73.1938 181.518 72.302 181.509 71.2898V70.5159C181.509 69.4841 181.676 68.5726 182.011 67.7816C182.345 66.9905 182.817 66.3861 183.427 65.9685C184.041 65.5459 184.742 65.3346 185.53 65.3346C186.333 65.3346 187.038 65.5435 187.648 65.9611C188.262 66.3738 188.734 66.9758 189.064 67.7668C189.394 68.553 189.559 69.4694 189.559 70.5159V71.194ZM188.246 70.5012C188.246 69.2286 188.008 68.2533 187.531 67.5752C187.054 66.8922 186.388 66.5507 185.53 66.5507C184.696 66.5507 184.039 66.8922 183.557 67.5752C183.081 68.2533 182.836 69.1967 182.822 70.4054V71.194C182.822 72.4273 183.062 73.3977 183.544 74.1053C184.03 74.8079 184.696 75.1592 185.544 75.1592C186.397 75.1592 187.057 74.8275 187.524 74.1642C187.992 73.496 188.232 72.5403 188.246 71.2972V70.5012Z" fill="#ff4e50"/>
<path d="M195.21 71.8721H192.859V76.2132H191.532V65.482H194.846C195.973 65.482 196.839 65.7572 197.444 66.3075C198.054 66.8578 198.359 67.6587 198.359 68.7102C198.359 69.3785 198.189 69.9607 197.85 70.457C197.515 70.9532 197.048 71.3242 196.447 71.5699L198.799 76.1247V76.2132H197.382L195.21 71.8721ZM192.859 70.7149H194.887C195.542 70.7149 196.063 70.5331 196.447 70.1695C196.837 69.8059 197.032 69.3195 197.032 68.7102C197.032 68.0469 196.846 67.5383 196.475 67.1846C196.108 66.8308 195.577 66.6515 194.88 66.6465H192.859V70.7149Z" fill="#ff4e50"/>
<path d="M207.378 71.8721H205.027V76.2132H203.7V65.482H207.014C208.141 65.482 209.008 65.7572 209.613 66.3075C210.222 66.8578 210.527 67.6587 210.527 68.7102C210.527 69.3785 210.357 69.9607 210.018 70.457C209.684 70.9532 209.216 71.3242 208.616 71.5699L210.967 76.1247V76.2132H209.551L207.378 71.8721ZM205.027 70.7149H207.055C207.711 70.7149 208.231 70.5331 208.616 70.1695C209.005 69.8059 209.2 69.3195 209.2 68.7102C209.2 68.0469 209.014 67.5383 208.643 67.1846C208.277 66.8308 207.745 66.6515 207.048 66.6465H205.027V70.7149Z" fill="#ff4e50"/>
<path d="M218.041 71.253H213.703V75.056H218.742V76.2132H212.383V65.482H218.673V66.6465H213.703V70.0958H218.041V71.253Z" fill="#ff4e50"/>
<path d="M225.912 73.4125H221.719L220.777 76.2132H219.416L223.238 65.482H224.393L228.222 76.2132H226.868L225.912 73.4125ZM222.118 72.248H225.521L223.816 67.2288L222.118 72.248Z" fill="#ff4e50"/>
<path d="M230.897 75.056H235.64V76.2132H229.57V65.482H230.897V75.056Z" fill="#ff4e50"/>
<path d="M202.601 12.787C197.179 12.787 191.697 12.8508 186.275 12.7232C184.933 12.7232 184.642 13.1698 184.7 14.5097C184.817 16.6152 184.7 18.7845 184.7 20.9539C184.758 26.6962 182.368 29.8226 177.236 30.7159C176.012 30.9711 174.729 31.0349 173.505 31.0349C165.749 31.0349 157.936 31.0349 150.18 30.9711C149.131 30.9711 148.723 31.2263 148.781 32.4386C148.898 34.8632 148.839 37.3515 148.781 39.7761C148.723 45.7099 146.157 48.8363 140.734 49.6019C137.235 50.0485 137.235 50.0485 137.235 46.2841C137.235 38.5638 137.235 30.9073 137.235 23.187C137.235 22.0386 137.527 21.7195 138.577 21.7833C149.597 21.8471 160.676 21.7833 171.697 21.8471C172.863 21.8471 173.213 21.5281 173.155 20.252C173.096 17.2532 172.98 14.2545 173.271 11.2557C173.563 8.12927 175.021 5.95993 177.645 4.68385C179.627 3.66298 181.785 3.34396 183.884 3.34396C193.155 3.34396 202.426 3.08875 211.698 3.47157C213.039 3.53538 214.38 3.9182 215.605 4.42863C218.462 5.64091 220.095 7.93785 220.503 11.2557C220.619 12.2765 220.503 12.787 219.336 12.787C213.797 12.7232 208.199 12.787 202.601 12.787Z" fill="#ff4e50"/>
<path d="M132.49 22.2322C132.49 28.5895 132.609 35.0097 132.49 41.367C132.431 44.8289 130.779 47.3466 127.65 48.6685C125.997 49.3608 124.285 49.7385 122.573 49.8014C113.246 49.8014 103.919 49.8014 94.5329 49.8014C92.6439 49.8014 90.7549 49.3608 89.043 48.5426C86.4456 47.2837 84.9107 45.1436 84.6156 42.0594C84.5565 41.2411 84.4975 40.3599 84.4975 39.4787C84.4975 27.8971 84.4975 16.3155 84.4385 4.79679C84.4385 3.47498 84.7927 3.16026 85.9733 3.28614C87.9804 3.53792 89.9875 3.78969 91.8765 4.73385C94.2968 5.99272 95.7726 8.00691 96.0678 10.9023C96.1858 11.9094 96.2449 12.9165 96.2449 13.9236C96.2449 22.0433 96.2449 30.1001 96.2449 38.2198C96.2449 40.297 96.422 40.4858 98.311 40.4858C105.159 40.4858 112.006 40.4858 118.854 40.4858C120.684 40.4858 120.92 40.234 120.92 38.2198C120.92 32.8696 120.979 27.5824 120.979 22.2322C121.392 21.9174 121.865 21.8545 122.337 21.8545C125.289 21.8545 128.24 21.8545 131.192 21.8545C131.664 21.8545 132.136 21.9174 132.49 22.2322Z" fill="#ff4e50"/>
<path d="M212.344 22.1957C219.672 22.1957 227 22.1957 234.329 22.1957C235.886 22.1957 235.944 22.2585 235.656 23.9557C235.021 27.7901 232.54 30.1787 228.443 30.8702C227.174 31.1216 225.904 31.2473 224.577 31.2473C216.903 31.2473 209.286 31.2473 201.612 31.1845C200.516 31.1845 200.227 31.4988 200.227 32.6931C200.285 35.396 200.285 38.0989 200.227 40.8018C200.112 45.1391 198.208 47.7792 194.399 49.0363C192.957 49.5392 191.399 49.6021 189.899 49.7906C189.149 49.8535 188.86 49.6649 188.86 48.722C188.86 40.1733 188.918 31.6245 188.86 23.1386C188.86 22.0071 189.379 22.1328 190.072 22.1328C197.515 22.1957 204.959 22.1957 212.344 22.1957Z" fill="#ff4e50"/>
<path d="M132.128 22.1285C128.372 22.1285 124.617 22.1285 120.861 22.1285C120.861 18.7358 120.745 15.2791 120.861 11.8864C120.977 8.49371 122.479 5.99719 125.368 4.65292C126.754 4.01278 128.141 3.56469 129.643 3.50068C139.35 3.18061 149.115 3.18061 158.822 3.50068C160.497 3.56469 162.115 4.01278 163.617 4.84495C166.044 6.18923 167.373 8.30167 167.72 11.3103C167.835 12.5906 167.489 12.8466 166.449 12.8466C155.759 12.7826 145.07 12.8466 134.324 12.8466C133.977 12.8466 133.688 12.9106 133.341 12.8466C132.475 12.7186 132.128 13.0386 132.186 14.1269C132.243 16.7514 132.186 19.44 132.128 22.1285Z" fill="#ff4e50"/>
<path fill-rule="evenodd" clip-rule="evenodd" d="M70.6185 22.1066C70.2199 22.0316 69.8185 21.956 69.4171 21.8646C70.4552 21.6754 71.4356 21.4862 72.3584 21.2339C76.5685 19.9727 78.5294 17.1348 78.5294 12.4681C78.5294 7.92756 76.4531 5.02665 72.3584 3.89151C71.2626 3.57619 70.1091 3.32393 68.9557 3.32393C62.9001 3.2924 56.8444 3.2924 50.7888 3.2924C44.7332 3.2924 38.6775 3.2924 32.6219 3.26087C31.8144 3.26087 31.6414 3.57619 31.6414 4.39601V40.5944C31.6991 45.3242 33.7753 48.099 37.9854 49.2341C39.3696 49.6125 40.7537 49.8017 42.1955 49.8017H67.9176C69.4171 49.8017 70.9742 49.6125 72.416 49.171C76.2801 48.0359 78.4717 45.2611 78.5294 41.0989C78.587 37.5674 78.587 34.0358 78.5294 30.5043C78.4717 26.7835 76.6838 24.1979 73.4542 22.8736C72.5533 22.4706 71.5944 22.2902 70.6185 22.1066ZM43.0602 13.7299V26.1534C43.0602 30.2525 43.0602 34.3516 43.1756 38.4508C43.1756 40.2165 43.4063 40.5319 44.9634 40.5319H65.5526C66.8214 40.5949 67.2828 39.9643 67.2828 38.64C67.2251 36.7481 67.1674 34.7931 67.2828 32.9012C67.3405 31.5769 67.0521 31.1985 65.7833 31.1985C65.0023 31.1985 64.218 31.2163 63.4321 31.2341C60.9098 31.2913 58.3699 31.349 55.8636 30.8201C51.7688 30.0003 49.5196 27.6669 48.8852 23.757C48.7388 22.7968 48.6668 22.3239 48.8499 22.0911C49.0276 21.8651 49.4456 21.8651 50.2693 21.8651C52.0187 21.8651 53.7681 21.8581 55.5175 21.8511C59.0164 21.8371 62.5152 21.823 66.014 21.8651C66.9367 21.9282 67.2828 21.6128 67.2251 20.5408C67.1674 18.2705 67.1674 16.0002 67.2251 13.7299C67.2828 12.7209 66.9367 12.5948 66.1293 12.5948H66.1289C58.8046 12.5948 51.4803 12.5948 44.156 12.5317C43.2909 12.5317 43.0602 12.784 43.0602 13.7299Z" fill="#ff4e50"/>
</svg>