<svg xmlns="http://www.w3.org/2000/svg" width="179" height="75" viewBox="0 0 179 75" fill="none">
<path fill-rule="evenodd" clip-rule="evenodd" d="M99.2256 57.308C105.123 57.308 109.905 52.4795 109.905 46.5233C109.905 40.5671 105.123 35.7386 99.2256 35.7386C93.3277 35.7386 88.5466 40.5671 88.5466 46.5233C88.5466 52.4795 93.3277 57.308 99.2256 57.308ZM99.2256 68.4008C111.19 68.4008 120.889 58.6059 120.889 46.5233C120.889 34.4407 111.19 24.6458 99.2256 24.6458C87.2614 24.6458 77.5624 34.4407 77.5624 46.5233C77.5624 58.6059 87.2614 68.4008 99.2256 68.4008Z" fill="#00a8c6"/>
<path d="M124.55 45.5989V68.4008H137.06V47.1396C137.06 41.3535 141.704 36.663 147.434 36.663H150.18V24.6458H145.298C133.839 24.6458 124.55 34.0268 124.55 45.5989Z" fill="#00a8c6"/>
<path d="M94.6489 13.8611C94.6489 17.4348 91.7802 20.3319 88.2415 20.3319C84.7027 20.3319 81.834 17.4348 81.834 13.8611C81.834 10.2874 84.7027 7.39028 88.2415 7.39028C91.7802 7.39028 94.6489 10.2874 94.6489 13.8611Z" fill="#00a8c6"/>
<path d="M116.007 13.8611C116.007 17.4348 113.138 20.3319 109.6 20.3319C106.061 20.3319 103.192 17.4348 103.192 13.8611C103.192 10.2874 106.061 7.39028 109.6 7.39028C113.138 7.39028 116.007 10.2874 116.007 13.8611Z" fill="#00a8c6"/>
<path d="M40.8702 59.8078V51.1504L46.161 44.3433L61.3254 68.4008H74.9845L53.8472 34.3229L76.3543 7.39028H61.6587L41.6617 33.6041H40.8702V15.9833H28.1587V59.8078H40.8702Z" fill="#00a8c6"/>
</svg>