<svg xmlns="http://www.w3.org/2000/svg" width="260" height="75" viewBox="0 0 260 75" fill="none">
<path d="M73.47 53.3643C69.9399 56.89 66.3257 54.8753 65.0649 53.3643C65.7373 61.1712 68.3429 65.4524 69.5196 66.7115C71.7049 63.9413 73.47 56.89 73.47 53.3643Z" fill="#ff3d7f"/>
<path d="M28.1692 62.6828V20.962H36.154V55.5475H48.5934V62.6828H28.1692Z" fill="#ff3d7f"/>
<path d="M55.2357 52.4408H71.2053V45.3054H64.5653L69.4402 22.2205L75.66 52.3568H83.6448L73.0544 10.3003H65.4899L55.2357 52.4408Z" fill="#ff3d7f"/>
<path d="M92.5504 51.0984V20.962H100.535V51.0984C100.703 52.6094 101.88 55.6314 105.41 55.9672C108.94 56.303 110.117 52.8612 110.285 51.0984V20.962H118.27V51.0984C117.85 54.9599 116.085 63.5223 104.486 63.1026C94.6517 62.6828 92.4663 55.2956 92.5504 51.0984Z" fill="#ff3d7f"/>
<path d="M131.214 21.3809V62.1782H137.854V36.0713L149.369 62.2622H156.934V21.3809H149.369L149.789 46.6484L138.695 21.3809H131.214Z" fill="#ff3d7f"/>
<path d="M177.02 32.9655V48.0756C177.02 50.594 176.6 56.0504 181.475 56.0504C185.005 56.0504 186.77 52.3568 187.274 50.2582H194.839C195.259 59.1564 191.309 64.445 180.214 63.6055C171.725 62.9339 169.287 56.0504 169.119 52.105L169.54 28.6003C169.876 25.8301 172.902 20.2058 182.904 20.2058C192.822 20.2058 194.755 28.7682 194.419 33.0494H187.274C186.938 31.1187 186.35 26.8375 181.475 27.2572C177.524 27.509 176.852 31.0347 177.02 32.9655Z" fill="#ff3d7f"/>
<path d="M205.431 20.962V62.2631H213.416V45.3901H222.745V62.2631H230.73V20.962H222.745V37.835H213.416V20.962H205.431Z" fill="#ff3d7f"/>
<path d="M55.2373 52.4408H71.2069V45.3055H64.5669L69.4419 22.2205L75.6616 52.3569H83.6464L73.056 10.3003H65.4915L55.2373 52.4408Z" fill="#ff3d7f"/>
</svg>