<svg xmlns="http://www.w3.org/2000/svg" width="274" height="75" viewBox="0 0 274 75" fill="none">
<path d="M28.4966 51.5313C31.0674 53.2451 36.1375 54.6733 40.8505 54.6733C52.2046 54.6733 57.7032 48.175 57.7032 40.7484C57.7032 33.6788 53.5615 29.8227 45.4207 26.6092C38.7796 24.0385 35.8518 21.8248 35.8518 17.3259C35.8518 14.0411 38.3511 10.1136 44.9209 10.1136C49.2768 10.1136 52.4903 11.5418 54.0613 12.3986L55.7751 7.32854C53.6328 6.186 49.991 5.04346 45.1351 5.04346C35.7805 5.04346 29.5678 10.6134 29.5678 18.04C29.5678 24.7526 34.4237 28.9657 42.2073 31.6793C48.777 34.1787 51.3478 36.7493 51.3478 41.2482C51.3478 46.104 47.6345 49.4603 41.2789 49.4603C36.9943 49.4603 32.924 48.0322 30.1391 46.3183L28.4966 51.5313Z" fill="#bd1550"/>
<path d="M60.8705 19.3969L73.5815 51.1742C73.9385 51.9597 74.0813 52.4596 74.0813 52.8167C74.0813 53.2452 73.8672 53.6736 73.5815 54.3162C72.1532 57.5297 70.0109 59.9576 68.3686 61.3145C66.4405 62.8854 64.441 63.8852 62.7985 64.3851L64.3696 69.6694C65.8693 69.3837 68.9398 68.3126 72.0819 65.6704C76.3665 61.8858 79.4371 55.8159 83.9359 43.9618L93.362 19.3969H86.7209L79.8655 39.6772C79.0086 42.1052 78.2945 44.8188 77.6518 46.8183H77.509C76.9377 44.7473 76.0808 42.0338 75.2953 39.7487L67.7259 19.3969H60.8705Z" fill="#bd1550"/>
<path d="M99.0536 53.8881H105.266V33.1077C105.266 32.0367 105.48 30.9655 105.766 30.1799C106.909 26.6809 110.05 23.7531 114.192 23.7531C120.119 23.7531 122.19 28.3947 122.19 34.036V53.8881H128.403V33.2505C128.403 21.468 120.976 18.6115 116.263 18.6115C110.55 18.6115 106.552 21.825 104.838 25.0384H104.623L104.338 19.397H98.7679C98.9106 22.1821 99.0536 25.1099 99.0536 28.6804V53.8881Z" fill="#bd1550"/>
<path d="M162.228 47.8895C160.444 48.6751 158.086 49.6035 154.588 49.6035C147.661 49.6035 142.519 44.6762 142.519 36.6783C142.519 29.5372 146.804 23.6103 154.731 23.6103C158.158 23.6103 160.515 24.3958 162.015 25.2526L163.442 20.3968C161.728 19.5399 158.373 18.6115 154.731 18.6115C143.447 18.6115 136.164 26.3953 136.164 37.0353C136.164 47.604 142.948 54.6736 153.373 54.6736C158.015 54.6736 161.658 53.4596 163.299 52.6026L162.228 47.8895Z" fill="#bd1550"/>
<path d="M180.838 55.1271C183.302 55.1271 185.301 53.1289 185.301 50.6641C185.301 48.1992 183.302 46.2009 180.838 46.2009C178.373 46.2009 176.375 48.1992 176.375 50.6641C176.375 53.1289 178.373 55.1271 180.838 55.1271Z" fill="#bd1550"/>
<path d="M241.088 21.6537C243.554 21.6537 245.552 19.6555 245.552 17.1905C245.552 14.7256 243.554 12.7274 241.088 12.7274C238.623 12.7274 236.625 14.7256 236.625 17.1905C236.625 19.6555 238.623 21.6537 241.088 21.6537Z" fill="#bd1550"/>
<path d="M245.552 28.3478C245.552 25.8828 243.554 23.8846 241.088 23.8846C238.623 23.8846 236.625 25.8828 236.625 28.3478V49.5475C236.625 52.0124 238.623 54.0106 241.088 54.0106C243.554 54.0106 245.552 52.0124 245.552 49.5475V28.3478Z" fill="#bd1550"/>
<path d="M212.679 16.7707C211.638 14.5367 208.982 13.5702 206.748 14.6119C204.515 15.6536 203.548 18.3091 204.59 20.5431L219.208 51.8915C220.249 54.1254 222.905 55.092 225.138 54.0502C227.372 53.0084 228.339 50.353 227.297 48.119L212.679 16.7707Z" fill="#bd1550"/>
<path d="M188.971 48.1161C187.93 50.3501 188.896 53.0055 191.13 54.0473C193.364 55.089 196.019 54.1225 197.061 51.8886L211.679 20.5401C212.721 18.3061 211.754 15.6507 209.52 14.6089C207.286 13.5673 204.631 14.5337 203.589 16.7677L188.971 48.1161Z" fill="#bd1550"/>
</svg>