<svg xmlns="http://www.w3.org/2000/svg" width="167" height="57" viewBox="0 0 167 57" fill="none">
<path d="M72 19.5177H76.3342L81.4711 32.3828L86.6347 19.5177H90.9421L83.4777 37.6117H79.4912L72 19.5177Z" fill="#033649"/>
<path d="M101.335 38C98.6062 38 96.5462 37.3097 95.1549 35.9292C93.7637 34.5313 93.0681 32.6589 93.0681 30.312V19.5177H97.1348V30.3638C97.1348 31.6753 97.5093 32.6762 98.2584 33.3665C99.0076 34.0568 100.033 34.4019 101.335 34.4019C102.619 34.4019 103.627 34.0568 104.358 33.3665C105.108 32.6762 105.482 31.6753 105.482 30.3638V19.5177H109.549V30.312C109.549 32.6589 108.862 34.5313 107.489 35.9292C106.115 37.3097 104.064 38 101.335 38Z" fill="#033649"/>
<path d="M121.801 38C119.803 38 118.037 37.6203 116.503 36.861C114.969 36.0845 113.783 34.9886 112.945 33.5736C112.107 32.1585 111.687 30.4932 111.687 28.5777C111.687 26.6621 112.107 24.9968 112.945 23.5817C113.783 22.1494 114.969 21.0536 116.503 20.2943C118.037 19.5177 119.803 19.1294 121.801 19.1294C124.387 19.1294 126.545 19.6989 128.275 20.8379V24.5654C127.49 23.9269 126.59 23.4696 125.573 23.1935C124.574 22.9001 123.433 22.7534 122.148 22.7534C120.204 22.7534 118.661 23.2797 117.52 24.3324C116.396 25.3678 115.834 26.7829 115.834 28.5777C115.834 30.3896 116.405 31.822 117.547 32.8747C118.688 33.9101 120.222 34.4278 122.148 34.4278C123.468 34.4278 124.637 34.2811 125.653 33.9877C126.67 33.6771 127.615 33.1853 128.489 32.5123V36.2398C126.848 37.4133 124.619 38 121.801 38Z" fill="#033649"/>
<path d="M135.455 19H138.666L143.883 27.6975H140.003L137.06 22.624L134.117 27.6975H130.238L135.455 19Z" fill="#033649"/>
<path d="M146.136 19.5177H150.203V37.6117H146.136V19.5177Z" fill="#033649"/>
<path d="M157.475 22.8052H152.018V19.5177H167V22.8052H161.542V37.6117H157.475V22.8052Z" fill="#033649"/>
<rect width="57" height="57" rx="8" fill="#033649"/>
<path d="M45.7348 41.9598H38.2235C37.6306 41.9598 37.1364 41.817 36.7411 41.5315C36.3457 41.224 36.0273 40.8397 35.7857 40.3784L30.7123 29.3092C30.317 28.4966 29.9655 27.7279 29.6581 27.0031C29.3506 26.2564 29.0761 25.5206 28.8345 24.7958C28.3732 26.2234 27.7912 27.7279 27.0884 29.3092L22.4762 40.3784C22.2786 40.8397 21.9601 41.224 21.5209 41.5315C21.1036 41.817 20.5655 41.9598 19.9066 41.9598H12L25.3753 15.9998H32.03L45.7348 41.9598Z" fill="#031634"/>
</svg>